<?xml version="1.0" encoding="UTF-8" standalone="no"?>
<!-- Uploaded to: SVG Repo, www.svgrepo.com, Generator: SVG Repo Mixer Tools -->

<svg
   width="699.21875"
   height="699.92188"
   viewBox="0 0 895 895.9"
   class="icon"
   version="1.1"
   id="svg16"
   sodipodi:docname="wine-svgrepo-com.svg"
   inkscape:version="1.3.2 (091e20e, 2023-11-25, custom)"
   xmlns:inkscape="http://www.inkscape.org/namespaces/inkscape"
   xmlns:sodipodi="http://sodipodi.sourceforge.net/DTD/sodipodi-0.dtd"
   xmlns="http://www.w3.org/2000/svg"
   xmlns:svg="http://www.w3.org/2000/svg">
  <defs
     id="defs16" />
  <sodipodi:namedview
     id="namedview16"
     pagecolor="#ffffff"
     bordercolor="#000000"
     borderopacity="0.25"
     inkscape:showpageshadow="2"
     inkscape:pageopacity="0.0"
     inkscape:pagecheckerboard="0"
     inkscape:deskcolor="#d1d1d1"
     showgrid="false"
     inkscape:zoom="1.46625"
     inkscape:cx="349.19011"
     inkscape:cy="350.89514"
     inkscape:window-width="2560"
     inkscape:window-height="1369"
     inkscape:window-x="2552"
     inkscape:window-y="-8"
     inkscape:window-maximized="1"
     inkscape:current-layer="svg16" />
  <path
     d="m 200,219.6 c -13.8,0 -20.7,-9.8 -25.7,-17 -5.1,-7.3 -7.7,-10.2 -12.7,-10.2 -5,0 -7.5,3 -12.7,10.2 -5.1,7.2 -12,17 -25.7,17 -13.8,0 -20.7,-9.8 -25.7,-17 -5.1,-7.3 -7.7,-10.2 -12.7,-10.2 -5,0 -7.5,3 -12.7,10.2 -5.1,7.2 -12,17 -25.7,17 -13.7,0 -20.7,-9.9 -25.7,-17 C 15.6,195.3 13,192.4 8,192.4 c -4.4,0 -8,-3.6 -8,-8 0,-4.4 3.6,-8 8,-8 13.8,0 20.7,9.8 25.7,17 5.1,7.3 7.7,10.2 12.7,10.2 5,0 7.5,-3 12.7,-10.2 5.1,-7.2 12,-17 25.7,-17 13.7,0 20.7,9.8 25.7,17 5.1,7.3 7.7,10.2 12.7,10.2 5,0 7.5,-3 12.7,-10.2 5.1,-7.2 12,-17 25.7,-17 13.7,0 20.7,9.8 25.7,17 5.1,7.3 7.7,10.2 12.7,10.2 4.4,0 8,3.6 8,8 0,4.4 -3.6,8 -8,8 z m 0,-50 c -13.8,0 -20.7,-9.8 -25.7,-17 -5.1,-7.3 -7.7,-10.2 -12.7,-10.2 -5,0 -7.5,3 -12.7,10.2 -5.1,7.2 -12,17 -25.7,17 -13.8,0 -20.7,-9.8 -25.7,-17 -5.1,-7.3 -7.7,-10.2 -12.7,-10.2 -5,0 -7.5,3 -12.7,10.2 -5.1,7.2 -12,17 -25.7,17 -13.7,0 -20.7,-9.9 -25.7,-17 C 15.6,145.3 13,142.4 8,142.4 c -4.4,0 -8,-3.6 -8,-8 0,-4.4 3.6,-8 8,-8 13.8,0 20.7,9.8 25.7,17 5.1,7.3 7.7,10.2 12.7,10.2 5,0 7.5,-3 12.7,-10.2 5.1,-7.2 12,-17 25.7,-17 13.7,0 20.7,9.8 25.7,17 5.1,7.3 7.7,10.2 12.7,10.2 5,0 7.5,-3 12.7,-10.2 5.1,-7.2 12,-17 25.7,-17 13.7,0 20.7,9.8 25.7,17 5.1,7.3 7.7,10.2 12.7,10.2 4.4,0 8,3.6 8,8 0,4.4 -3.6,8 -8,8 z"
     fill="#9a2d2f"
     id="path1" />
  <path
     d="m 289,40 m -32,0 a 32,32 0 1 0 64,0 32,32 0 1 0 -64,0 z"
     fill="#ffeb4d"
     id="path2" />
  <path
     d="m 289,80 c -22.1,0 -40,-17.9 -40,-40 0,-22.1 17.9,-40 40,-40 22.1,0 40,17.9 40,40 0,22.1 -17.9,40 -40,40 z m 0,-64 c -13.2,0 -24,10.8 -24,24 0,13.2 10.8,24 24,24 13.2,0 24,-10.8 24,-24 0,-13.2 -10.8,-24 -24,-24 z"
     fill="#9a2d2f"
     id="path3" />
  <path
     d="M 329,297.3 H 249 V 116.2 c 0,-7.7 6.2,-13.9 13.9,-13.9 H 315 c 7.7,0 13.9,6.2 13.9,13.9 v 181.1 z"
     fill="#ffacc2"
     id="path4" />
  <path
     d="M 391,887.7 H 187 c -18.1,0 -33,-14.8 -33,-33 v -432 c 0,-74.2 60.7,-135 135,-135 74.2,0 135,60.7 135,135 v 432 c 0,18.2 -14.8,33 -33,33 z"
     fill="#ffacc2"
     id="path5" />
  <path
     d="m 208,453.7 h 162 v 300 H 208 Z"
     fill="#dae5ff"
     id="path6" />
  <path
     d="M 370,761.7 H 208 c -4.4,0 -8,-3.6 -8,-8 v -300 c 0,-4.4 3.6,-8 8,-8 h 162 c 4.4,0 8,3.6 8,8 v 300 c 0,4.5 -3.6,8 -8,8 z m -154,-16 h 146 v -284 H 216 Z"
     fill="#9a2d2f"
     id="path7" />
  <path
     d="m 333,173.8 h -88 c -3.3,0 -6,-2.7 -6,-6 v -20 c 0,-3.3 2.7,-6 6,-6 h 88 c 3.3,0 6,2.7 6,6 v 20 c 0,3.3 -2.7,6 -6,6 z"
     fill="#dae5ff"
     id="path8" />
  <path
     d="m 512.4,577.5 c -66.2,0 -126.3,-54 -119.9,-120 1.3,-12.9 10,-51 10,-51 h 219.8 c 0,0 8.1,38.1 9.3,51 6,66 -53,120 -119.2,120 z"
     fill="#ffffff"
     id="path9" />
  <path
     d="M 631.8,457.8 H 392.5 v 0.3 c -6.4,66 53.7,120 120,120 66.3,0 125.3,-54 119.3,-120 z"
     fill="#ffacc2"
     id="path10" />
  <path
     d="m 512.5,569.5 c 32.1,0 64.1,-14 85.5,-37.5 0.4,-0.4 0.7,-0.9 1.1,-1.3 -19.7,17.5 -26.6,15.3 -40.3,19.8 -26.7,8.8 -34.7,-7.5 -48.7,-10 -14.8,-2.6 -33,16.2 -63,0.5 -12,-6.3 -26.2,-18.3 -33.5,-25.9 3.4,5.7 7.4,11.1 12.1,16.2 21.8,23.9 54.2,38.2 86.8,38.2 z"
     fill="#ffffff"
     id="path11" />
  <path
     d="m 682.4,577.5 c -66.2,0 -126.3,-54 -119.9,-120 1.3,-12.9 10,-51 10,-51 h 219.8 c 0,0 8.1,38.1 9.3,51 6,66 -53,120 -119.2,120 z"
     fill="#ffffff"
     id="path12" />
  <path
     d="m 801.6,457 h -239 v 0.3 c -6.5,65.8 53.6,119.7 119.8,119.7 66.2,0 125.2,-53.9 119.2,-119.7 z"
     fill="#ffacc2"
     id="path13" />
  <path
     d="m 682.4,569.5 c 32.1,0 64,-14 85.5,-37.5 0.4,-0.4 0.7,-0.9 1.1,-1.3 -19.7,17.5 -26.6,15.3 -40.3,19.8 -26.6,8.7 -34.6,-7.5 -48.6,-10 -14.8,-2.6 -33,16.2 -62.9,0.5 -12,-6.3 -26.1,-18.3 -33.5,-25.9 3.4,5.7 7.4,11.1 12.1,16.2 21.6,23.9 54,38.2 86.6,38.2 z M 257,181.8 v 101.6 c 10.3,-2.4 21,-3.6 32,-3.6 2.4,0 4.9,0.1 7.3,0.2 -12,-12.9 -26.8,-25.3 -27.6,-51.3 -0.3,-10.4 -0.7,-29.6 3.1,-46.9 z m -10,-32 v 16 h 29.9 c 3.1,-6.7 7.2,-12.3 12.8,-16 z m 15.9,-39.5 c -3.3,0 -5.9,2.7 -5.9,5.9 v 17.6 h 50.5 c 4.4,-6.9 7.5,-15.1 9.7,-23.1 -0.7,-0.3 -1.4,-0.4 -2.1,-0.4 z"
     fill="#ffffff"
     id="path14" />
  <path
     d="m 887,653.7 c -5,0 -7.5,-3 -12.7,-10.2 -5.1,-7.2 -12,-17 -25.7,-17 -13.7,0 -20.7,9.8 -25.7,17 -5.1,7.3 -7.7,10.2 -12.7,10.2 -5,0 -7.5,-3 -12.7,-10.2 -5.1,-7.2 -12,-17 -25.7,-17 -13.7,0 -20.7,9.8 -25.7,17 -5.1,7.3 -7.7,10.2 -12.7,10.2 -5,0 -7.5,-3 -12.7,-10.2 -5.1,-7.2 -12,-17 -25.7,-17 -1.5,0 -2.8,0.4 -4,1.1 v -36.2 c 1.2,0.7 2.5,1.1 4,1.1 5,0 7.5,3 12.7,10.2 5.1,7.2 12,17 25.7,17 13.7,0 20.7,-9.8 25.7,-17 5.1,-7.3 7.7,-10.2 12.7,-10.2 5,0 7.5,3 12.7,10.2 5.1,7.2 12,17 25.7,17 13.8,0 20.7,-9.8 25.7,-17 5.1,-7.3 7.7,-10.2 12.7,-10.2 5,0 7.5,3 12.7,10.2 5.1,7.2 12,17 25.7,17 4.4,0 8,-3.6 8,-8 0,-4.4 -3.6,-8 -8,-8 -5,0 -7.5,-3 -12.7,-10.2 -5.1,-7.2 -12,-17 -25.7,-17 -13.7,0 -20.7,9.8 -25.7,17 -5.1,7.3 -7.7,10.2 -12.7,10.2 -5,0 -7.5,-3 -12.7,-10.2 -5.1,-7.2 -12,-17 -25.7,-17 -13.7,0 -20.7,9.8 -25.7,17 -5.1,7.3 -7.7,10.2 -12.7,10.2 -5,0 -7.5,-3 -12.7,-10.2 -2.5,-3.6 -5.5,-7.8 -9.5,-11.1 26.1,-5.8 50.1,-19.5 68.4,-39.5 20.1,-22 30.7,-49.2 30.4,-77.4 0,-3 -0.2,-5.9 -0.4,-8.9 v -0.4 c 0,-0.1 0,-0.3 -0.1,-0.4 -1.5,-14 -9,-49.4 -9.3,-50.9 -0.8,-3.7 -4,-6.3 -7.8,-6.3 H 429.9 C 421.1,347.3 384.9,305.3 337,288.1 V 181.2 c 5.8,-1.7 10,-7.1 10,-13.4 v -20 c 0,-6.3 -4.2,-11.7 -10,-13.4 v -18.2 c 0,-12.1 -9.8,-21.9 -21.9,-21.9 H 263 c -12.1,0 -21.9,9.8 -21.9,21.9 v 18.2 c -5.8,1.7 -10,7.1 -10,13.4 v 20 c 0,6.3 4.2,11.7 10,13.4 V 288 c -55.3,19.8 -95,72.7 -95,134.7 v 432 c 0,9.5 3.3,18.3 8.7,25.2 H 35 c -4.4,0 -8,3.6 -8,8 0,4.4 3.6,8 8,8 h 824 c 4.4,0 8,-3.6 8,-8 0,-4.4 -3.6,-8 -8,-8 H 691 V 641.3 c 1.2,0.7 2.5,1.1 4,1.1 5,0 7.5,3 12.7,10.2 5.1,7.2 12,17 25.7,17 13.7,0 20.7,-9.8 25.7,-17 5.1,-7.3 7.7,-10.2 12.7,-10.2 5,0 7.5,3 12.7,10.2 5.1,7.2 12,17 25.7,17 13.8,0 20.7,-9.8 25.7,-17 5.1,-7.3 7.7,-10.2 12.7,-10.2 5,0 7.5,3 12.7,10.2 5.1,7.2 12,17 25.7,17 4.4,0 8,-3.6 8,-8 0,-4.4 -3.6,-7.9 -8,-7.9 z M 578.9,414.5 h 206.9 c 1.7,8.4 4.8,23.6 6.6,34.5 H 571.8 c 1.9,-11 5.2,-26.1 7.1,-34.5 z M 425.7,531.3 C 409.5,513.5 400.6,491.9 400,469.6 v -3.7 h 154 v 2.2 c 0.2,26.9 10.6,52.8 29.9,74 0.5,0.5 1,1.1 1.5,1.6 -20.4,16.4 -46.7,25.8 -73,25.8 -32.6,0 -65,-14.3 -86.7,-38.2 z m -1.8,21.2 c -0.1,-0.1 -0.2,-0.1 -0.2,-0.2 0,0.1 0.1,0.1 0.2,0.2 z m -3.9,-3.5 -0.5,-0.5 c 0.2,0.1 0.3,0.3 0.5,0.5 z M 562.5,414.5 c 0,0 0,-0.1 0,0 -2.1,9.7 -5.4,24.9 -7,35.3 H 401.7 c 1.9,-11 5.3,-26.7 7.2,-35.3 z M 257,116.2 c 0,-3.3 2.7,-5.9 5.9,-5.9 H 315 c 3.3,0 5.9,2.7 5.9,5.9 v 17.6 h -64 v -17.6 z m -10,33.6 h 84 v 16 h -84 z m 74,32 v 101.6 c -10.3,-2.4 -21,-3.6 -32,-3.6 -11,0 -21.7,1.3 -32,3.6 V 181.8 Z M 162,422.7 c 0,-33.8 13.3,-65.6 37.3,-89.7 13.1,-13.1 28.4,-22.9 45.1,-29.2 14.1,-5.3 29.1,-8.1 44.5,-8.1 15.4,0 30.5,2.8 44.5,8.1 16.7,6.3 32.1,16.2 45.1,29.2 18.2,18.2 30.2,40.9 35,65.4 h -11.2 c -3.7,0 -7,2.6 -7.8,6.2 -0.4,1.6 -8.9,38.7 -10.2,52 -0.4,3.9 -0.5,7.8 -0.5,11.6 0.1,27 10.5,53 29.9,74.3 0.7,0.8 1.4,1.5 2.1,2.3 v 309.8 c 0,13.8 -11.2,25 -25,25 h -204 c -13.8,0 -25,-11.2 -25,-25 V 422.7 Z M 432,854.8 V 559.1 c 21,15.7 46.7,25.3 73,26.8 V 880 h -81.7 c 5.4,-7 8.7,-15.7 8.7,-25.2 z M 521,880 V 585.9 c 28.3,-1.8 55.2,-12.7 76.7,-30.8 21.7,17.7 49.2,28.5 77.3,30.2 V 880 Z M 682.4,569 c -32.5,0 -64.9,-14.2 -86.6,-38.1 -17.1,-18.8 -26.1,-41.9 -25.7,-65.7 v -0.3 H 794 v 4.6 c -0.8,22.6 -9.8,44.3 -26.1,62.1 -21.5,23.5 -53.5,37.4 -85.5,37.4 z"
     fill="#9a2d2f"
     id="path15" />
  <path
     d="m 189,344.7 c 1.8,2 3.6,4.1 5.3,6.3 29.2,38.8 67.5,18.9 77,10.5 17.5,-15.5 39.4,-20.6 74.2,-11.8 18.7,4.8 26.1,-5.7 29.8,-20 -12.3,-11.4 -26.4,-20.2 -41.7,-25.9 -14.1,-5.3 -29.1,-8.1 -44.5,-8.1 -15.4,0 -30.5,2.8 -44.5,8.1 -16.7,6.3 -32.1,16.2 -45.1,29.2 -3.9,3.8 -7.3,7.6 -10.5,11.7 z"
     fill="#ffffff"
     id="path16" />
</svg>
