<?xml version="1.0" encoding="UTF-8" standalone="no"?>
<svg
   width="1319.9971"
   height="1069.9094"
   xml:space="preserve"
   overflow="hidden"
   version="1.1"
   id="svg3"
   sodipodi:docname="blender.svg"
   viewBox="0 0 131.99971 106.99094"
   inkscape:version="1.3.2 (091e20e, 2023-11-25, custom)"
   xmlns:inkscape="http://www.inkscape.org/namespaces/inkscape"
   xmlns:sodipodi="http://sodipodi.sourceforge.net/DTD/sodipodi-0.dtd"
   xmlns="http://www.w3.org/2000/svg"
   xmlns:svg="http://www.w3.org/2000/svg"><sodipodi:namedview
     id="namedview3"
     pagecolor="#ffffff"
     bordercolor="#000000"
     borderopacity="0.25"
     inkscape:showpageshadow="2"
     inkscape:pageopacity="0.0"
     inkscape:pagecheckerboard="0"
     inkscape:deskcolor="#d1d1d1"
     inkscape:zoom="0.34258178"
     inkscape:cx="995.38278"
     inkscape:cy="649.47996"
     inkscape:window-width="2560"
     inkscape:window-height="1369"
     inkscape:window-x="2552"
     inkscape:window-y="-8"
     inkscape:window-maximized="1"
     inkscape:current-layer="svg3" /><defs
     id="defs1"><clipPath
       id="clip0"><rect
         x="64"
         y="505"
         width="132"
         height="107"
         id="rect1" /></clipPath></defs><g
     clip-path="url(#clip0)"
     transform="translate(-64.000297,-505.00212)"
     id="g3"><path
       d="m 1100.77,-1510.89 c 0.48,-8.56 4.67,-16.1 11,-21.45 6.2,-5.25 14.55,-8.46 23.66,-8.46 9.1,0 17.44,3.21 23.65,8.46 6.32,5.35 10.51,12.89 11,21.44 0.48,8.8 -3.06,16.97 -9.26,23.03 -6.32,6.16 -15.32,10.03 -25.39,10.03 -10.08,0 -19.09,-3.87 -25.41,-10.03 -6.21,-6.06 -9.74,-14.23 -9.25,-23.02 z"
       fill="#ffffff"
       transform="matrix(1.00221,0,0,1,-987.307,2075.29)"
       id="path1" /><path
       d="m 564.814,-775.251 c 0.246,-4.393 2.397,-8.263 5.642,-11.007 3.183,-2.695 7.467,-4.342 12.141,-4.342 4.669,0 8.953,1.647 12.138,4.342 3.243,2.744 5.394,6.614 5.643,11.002 0.246,4.514 -1.568,8.707 -4.751,11.816 -3.245,3.161 -7.861,5.145 -13.03,5.145 -5.169,0 -9.794,-1.984 -13.037,-5.145 -3.185,-3.109 -4.995,-7.302 -4.746,-11.811 z"
       fill="#265787"
       transform="matrix(1.00221,0,0,1,-433.25,1340.41)"
       id="path2" /><path
       d="m 536.495,-766.374 c 0.03,1.719 0.579,5.059 1.401,7.668 1.728,5.522 4.66,10.631 8.739,15.133 4.187,4.627 9.342,8.344 15.296,10.983 6.258,2.772 13.039,4.184 20.083,4.173 7.032,-0.01 13.813,-1.45 20.071,-4.242 5.954,-2.665 11.105,-6.398 15.284,-11.028 4.077,-4.521 7.004,-9.639 8.737,-15.161 0.871,-2.79 1.422,-5.621 1.643,-8.463 0.216,-2.799 0.125,-5.603 -0.272,-8.405 -0.776,-5.459 -2.665,-10.581 -5.573,-15.251 -2.66,-4.29 -6.089,-8.047 -10.166,-11.209 l 0.009,-0.007 -41.144,-31.591 c -0.037,-0.028 -0.068,-0.058 -0.107,-0.084 -2.7,-2.072 -7.239,-2.065 -10.208,0.012 -3.001,2.1 -3.345,5.573 -0.673,7.763 l -0.012,0.012 17.161,13.955 -52.305,0.056 h -0.07 c -4.323,0.004 -8.479,2.841 -9.301,6.425 -0.846,3.652 2.091,6.682 6.586,6.698 l -0.007,0.016 26.511,-0.051 -47.308,36.312 c -0.06,0.044 -0.125,0.091 -0.181,0.135 -4.462,3.417 -5.905,9.099 -3.094,12.696 2.853,3.656 8.918,3.663 13.427,0.021 l 25.819,-21.131 c 0,0 -0.376,2.852 -0.346,4.565 z m 66.345,9.552 c -5.32,5.42 -12.767,8.493 -20.826,8.51 -8.071,0.014 -15.518,-3.032 -20.838,-8.442 -2.6,-2.637 -4.509,-5.671 -5.687,-8.903 -1.155,-3.175 -1.603,-6.546 -1.306,-9.947 0.281,-3.324 1.271,-6.495 2.851,-9.365 1.551,-2.82 3.689,-5.368 6.328,-7.524 5.171,-4.214 11.755,-6.495 18.64,-6.505 6.893,-0.009 13.472,2.251 18.648,6.452 2.634,2.146 4.769,4.685 6.321,7.501 1.586,2.867 2.569,6.026 2.862,9.36 0.293,3.396 -0.156,6.762 -1.31,9.94 -1.181,3.241 -3.083,6.275 -5.683,8.923 z"
       fill="#ea7600"
       transform="matrix(1.00221,0,0,1,-433.25,1340.41)"
       id="path3" /></g></svg>
