<?xml version="1.0" encoding="UTF-8" standalone="no"?>
<svg xml:space="preserve" version="1.1" id="svg3" sodipodi:docname="vlc-logo.svg" width="63.3mm" height="72.0mm"
   viewBox="0 0 31.684 36" inkscape:version="1.3.2 (091e20e, 2023-11-25, custom)"
   xmlns:inkscape="http://www.inkscape.org/namespaces/inkscape"
   xmlns:sodipodi="http://sodipodi.sourceforge.net/DTD/sodipodi-0.dtd" xmlns="http://www.w3.org/2000/svg"
   xmlns:svg="http://www.w3.org/2000/svg">
   <defs id="defs3" />
   <sodipodi:namedview id="namedview3" pagecolor="#ffffff" bordercolor="#000000" borderopacity="0.25"
      showgrid="false" />
   <path fill="#f57c00"
      d="m 28.099,22.837 c 0,0 -0.11,-0.837 -1.257,-0.837 h -3.719 c 0.798,2.671 1.497,5.135 1.497,5.279 0,2.387 -3.401,3.393 -8.917,3.393 -5.515,0 -8.651,-0.94 -8.651,-3.326 0,-0.167 0.998,-2.692 1.791,-5.346 H 4.78 C 3.974,22 3.843,22.749 3.843,22.749 L 0,34.986 0.656,36 h 30.652 l 0.376,-1.014 z"
      id="path1" />
   <path fill="#e0e0e0"
      d="m 15.842,0 c -1.029,0 -1.864,0.179 -1.864,0.398 -0.492,1.483 -8.122,26.143 -8.122,26.774 0,2.388 4.471,3.827 9.985,3.827 5.514,0 9.986,-1.439 9.986,-3.827 0,-0.549 -7.614,-25.268 -8.122,-26.774 C 17.706,0.179 16.872,0 15.842,0 Z"
      id="path2" />
   <path fill="#ff9800"
      d="M 25.037,24.447 C 23.873,26.232 20.182,28 15.887,28 c -4.34,0 -8.156,-1.696 -9.281,-3.51 -0.499,1.483 -0.892,2.647 -0.892,3.28 0,2.386 4.533,4.229 10.128,4.229 5.595,0 10.131,-1.844 10.131,-4.229 0,-0.548 -0.419,-1.815 -0.936,-3.323 z M 23.228,18.314 21.154,11.52 c 0,0 -1.857,1.479 -5.311,1.479 -3.453,0 -5.316,-1.479 -5.316,-1.479 l -2.081,6.806 c 0,0 2.068,2.674 7.397,2.674 5.373,0 7.385,-2.686 7.385,-2.686 z M 19.082,4.809 17.706,0.399 c 0,0 -0.083,-0.398 -1.864,-0.398 -1.844,0 -1.864,0.398 -1.864,0.398 l -1.376,4.407 c 0,0 0.885,1.194 3.239,1.194 2.355,0 3.241,-1.191 3.241,-1.191 z"
      id="path3" />
</svg>